# blocky humanoid (Blender Z-up, ~40 units) -- worked example for rig_avatar.py
o spine.001
v 3.60000 -3.00187 40.78715
v -3.60000 -3.00187 40.78715
v 3.60000 3.00187 36.81285
v -3.60000 3.00187 36.81285
v 3.60000 -1.12187 43.62715
v -3.60000 -1.12187 43.62715
v 3.60000 4.88187 39.65285
v -3.60000 4.88187 39.65285
f 1 2 4
f 1 4 3
f 5 8 6
f 5 7 8
f 1 5 6
f 1 6 2
f 3 4 8
f 3 8 7
f 1 3 7
f 1 7 5
f 2 6 8
f 2 8 4
o spine.002
v 3.60000 -1.66132 42.28734
v -3.60000 -1.66132 42.28734
v 3.60000 5.42132 40.99266
v -3.60000 5.42132 40.99266
v 3.60000 -0.98132 46.00734
v -3.60000 -0.98132 46.00734
v 3.60000 6.10132 44.71266
v -3.60000 6.10132 44.71266
f 9 10 12
f 9 12 11
f 13 16 14
f 13 15 16
f 9 13 14
f 9 14 10
f 11 12 16
f 11 16 15
f 9 11 15
f 9 15 13
f 10 14 16
f 10 16 12
o spine.003
v 4.00000 -1.42559 45.69920
v -4.00000 -1.42559 45.69920
v 4.00000 6.54559 45.02080
v -4.00000 6.54559 45.02080
v 4.00000 -1.10559 49.45920
v -4.00000 -1.10559 49.45920
v 4.00000 6.86559 48.78080
v -4.00000 6.86559 48.78080
f 17 18 20
f 17 20 19
f 21 24 22
f 21 23 24
f 17 21 22
f 17 22 18
f 19 20 24
f 19 24 23
f 17 19 23
f 17 23 21
f 18 22 24
f 18 24 20
o chest
v 4.40000 -1.52000 49.12000
v -4.40000 -1.52000 49.12000
v 4.40000 7.28000 49.12000
v -4.40000 7.28000 49.12000
v 4.40000 -1.52000 52.92000
v -4.40000 -1.52000 52.92000
v 4.40000 7.28000 52.92000
v -4.40000 7.28000 52.92000
f 25 26 28
f 25 28 27
f 29 32 30
f 29 31 32
f 25 29 30
f 25 30 26
f 27 28 32
f 27 32 31
f 25 27 31
f 25 31 29
f 26 30 32
f 26 32 28
o neck
v 1.60000 1.29570 52.69641
v -1.60000 1.29570 52.69641
v 1.60000 4.46430 53.14359
v -1.60000 4.46430 53.14359
v 1.60000 -0.10430 62.61641
v -1.60000 -0.10430 62.61641
v 1.60000 3.06430 63.06359
v -1.60000 3.06430 63.06359
f 33 34 36
f 33 36 35
f 37 40 38
f 37 39 40
f 33 37 38
f 33 38 34
f 35 36 40
f 35 40 39
f 33 35 39
f 33 39 37
f 34 38 40
f 34 40 36
o head
v 3.60000 -2.06325 62.20332
v -3.60000 -2.06325 62.20332
v 3.60000 5.02325 63.47668
v -3.60000 5.02325 63.47668
v 3.60000 -2.98325 67.32332
v -3.60000 -2.98325 67.32332
v 3.60000 4.10325 68.59668
v -3.60000 4.10325 68.59668
f 41 42 44
f 41 44 43
f 45 48 46
f 45 47 48
f 41 45 46
f 41 46 42
f 43 44 48
f 43 48 47
f 41 43 47
f 41 47 45
f 42 46 48
f 42 48 44
o shoulder.R
v 1.96944 0.86570 52.66719
v -1.96944 1.06975 52.00113
v 1.96944 4.69025 53.83887
v -1.96944 4.89430 53.17281
v 0.68944 -1.25430 59.58719
v -3.24944 -1.05025 58.92113
v 0.68944 2.57025 60.75887
v -3.24944 2.77430 60.09281
f 49 50 52
f 49 52 51
f 53 56 54
f 53 55 56
f 49 53 54
f 49 54 50
f 51 52 56
f 51 56 55
f 49 51 55
f 49 55 53
f 50 54 56
f 50 56 52
o upper_arm.R
v -1.28000 2.76000 61.84000
v -1.28000 -1.24000 61.84000
v -1.28000 2.76000 57.84000
v -1.28000 -1.24000 57.84000
v -7.64000 2.76000 61.84000
v -7.64000 -1.24000 61.84000
v -7.64000 2.76000 57.84000
v -7.64000 -1.24000 57.84000
f 57 58 60
f 57 60 59
f 61 64 62
f 61 63 64
f 57 61 62
f 57 62 58
f 59 60 64
f 59 64 63
f 57 59 63
f 57 63 61
f 58 62 64
f 58 64 60
o forearm.R
v -7.64000 2.56000 61.64000
v -7.64000 -1.04000 61.64000
v -7.64000 2.56000 58.04000
v -7.64000 -1.04000 58.04000
v -19.44000 2.56000 61.64000
v -19.44000 -1.04000 61.64000
v -19.44000 2.56000 58.04000
v -19.44000 -1.04000 58.04000
f 65 66 68
f 65 68 67
f 69 72 70
f 69 71 72
f 65 69 70
f 65 70 66
f 67 68 72
f 67 72 71
f 65 67 71
f 65 71 69
f 66 70 72
f 66 72 68
o hand.R
v -19.44000 2.36000 61.44000
v -19.44000 -0.84000 61.44000
v -19.44000 2.36000 58.24000
v -19.44000 -0.84000 58.24000
v -28.76000 2.36000 61.44000
v -28.76000 -0.84000 61.44000
v -28.76000 2.36000 58.24000
v -28.76000 -0.84000 58.24000
f 73 74 76
f 73 76 75
f 77 80 78
f 77 79 80
f 73 77 78
f 73 78 74
f 75 76 80
f 75 80 79
f 73 75 79
f 73 79 77
f 74 78 80
f 74 80 76
o shoulder.L
v 1.96944 1.06975 52.00113
v -1.96944 0.86570 52.66719
v 1.96944 4.89430 53.17281
v -1.96944 4.69025 53.83887
v 3.24944 -1.05025 58.92113
v -0.68944 -1.25430 59.58719
v 3.24944 2.77430 60.09281
v -0.68944 2.57025 60.75887
f 81 82 84
f 81 84 83
f 85 88 86
f 85 87 88
f 81 85 86
f 81 86 82
f 83 84 88
f 83 88 87
f 81 83 87
f 81 87 85
f 82 86 88
f 82 88 84
o upper_arm.L
v 1.28000 2.76000 57.84000
v 1.28000 -1.24000 57.84000
v 1.28000 2.76000 61.84000
v 1.28000 -1.24000 61.84000
v 7.64000 2.76000 57.84000
v 7.64000 -1.24000 57.84000
v 7.64000 2.76000 61.84000
v 7.64000 -1.24000 61.84000
f 89 90 92
f 89 92 91
f 93 96 94
f 93 95 96
f 89 93 94
f 89 94 90
f 91 92 96
f 91 96 95
f 89 91 95
f 89 95 93
f 90 94 96
f 90 96 92
o forearm.L
v 7.64000 2.56000 58.04000
v 7.64000 -1.04000 58.04000
v 7.64000 2.56000 61.64000
v 7.64000 -1.04000 61.64000
v 19.44000 2.56000 58.04000
v 19.44000 -1.04000 58.04000
v 19.44000 2.56000 61.64000
v 19.44000 -1.04000 61.64000
f 97 98 100
f 97 100 99
f 101 104 102
f 101 103 104
f 97 101 102
f 97 102 98
f 99 100 104
f 99 104 103
f 97 99 103
f 97 103 101
f 98 102 104
f 98 104 100
o hand.L
v 19.44000 2.36000 58.24000
v 19.44000 -0.84000 58.24000
v 19.44000 2.36000 61.44000
v 19.44000 -0.84000 61.44000
v 28.76000 2.36000 58.24000
v 28.76000 -0.84000 58.24000
v 28.76000 2.36000 61.44000
v 28.76000 -0.84000 61.44000
f 105 106 108
f 105 108 107
f 109 112 110
f 109 111 112
f 105 109 110
f 105 110 106
f 107 108 112
f 107 112 111
f 105 107 111
f 105 111 109
f 106 110 112
f 106 112 108
o thigh.R
v -0.67851 2.40000 41.10209
v -0.67851 -2.40000 41.10209
v 0.67851 2.40000 36.49791
v 0.67851 -2.40000 36.49791
v -4.47851 2.40000 39.98209
v -4.47851 -2.40000 39.98209
v -3.12149 2.40000 35.37791
v -3.12149 -2.40000 35.37791
f 113 114 116
f 113 116 115
f 117 120 118
f 117 119 120
f 113 117 118
f 113 118 114
f 115 116 120
f 115 120 119
f 113 115 119
f 113 119 117
f 114 118 120
f 114 120 116
o shin.R
v -1.60000 2.20000 37.68000
v -6.00000 2.20000 37.68000
v -1.60000 -2.20000 37.68000
v -6.00000 -2.20000 37.68000
v -1.60000 2.20000 21.20000
v -6.00000 2.20000 21.20000
v -1.60000 -2.20000 21.20000
v -6.00000 -2.20000 21.20000
f 121 122 124
f 121 124 123
f 125 128 126
f 125 127 128
f 121 125 126
f 121 126 122
f 123 124 128
f 123 128 127
f 121 123 127
f 121 127 125
f 122 126 128
f 122 128 124
o foot.R
v -1.80000 2.00000 21.20000
v -5.80000 2.00000 21.20000
v -1.80000 -2.00000 21.20000
v -5.80000 -2.00000 21.20000
v -1.80000 2.00000 2.96000
v -5.80000 2.00000 2.96000
v -1.80000 -2.00000 2.96000
v -5.80000 -2.00000 2.96000
f 129 130 132
f 129 132 131
f 133 136 134
f 133 135 136
f 129 133 134
f 129 134 130
f 131 132 136
f 131 136 135
f 129 131 135
f 129 135 133
f 130 134 136
f 130 136 132
o toe.R
v -2.20000 0.55053 1.45770
v -5.40000 0.55053 1.45770
v -2.20000 -0.55053 4.46230
v -5.40000 -0.55053 4.46230
v -2.20000 -5.88947 -0.90230
v -5.40000 -5.88947 -0.90230
v -2.20000 -6.99053 2.10230
v -5.40000 -6.99053 2.10230
f 137 138 140
f 137 140 139
f 141 144 142
f 141 143 144
f 137 141 142
f 137 142 138
f 139 140 144
f 139 144 143
f 137 139 143
f 137 143 141
f 138 142 144
f 138 144 140
o thigh.L
v -0.67851 2.40000 36.49791
v -0.67851 -2.40000 36.49791
v 0.67851 2.40000 41.10209
v 0.67851 -2.40000 41.10209
v 3.12149 2.40000 35.37791
v 3.12149 -2.40000 35.37791
v 4.47851 2.40000 39.98209
v 4.47851 -2.40000 39.98209
f 145 146 148
f 145 148 147
f 149 152 150
f 149 151 152
f 145 149 150
f 145 150 146
f 147 148 152
f 147 152 151
f 145 147 151
f 145 151 149
f 146 150 152
f 146 152 148
o shin.L
v 6.00000 2.20000 37.68000
v 1.60000 2.20000 37.68000
v 6.00000 -2.20000 37.68000
v 1.60000 -2.20000 37.68000
v 6.00000 2.20000 21.20000
v 1.60000 2.20000 21.20000
v 6.00000 -2.20000 21.20000
v 1.60000 -2.20000 21.20000
f 153 154 156
f 153 156 155
f 157 160 158
f 157 159 160
f 153 157 158
f 153 158 154
f 155 156 160
f 155 160 159
f 153 155 159
f 153 159 157
f 154 158 160
f 154 160 156
o foot.L
v 5.80000 2.00000 21.20000
v 1.80000 2.00000 21.20000
v 5.80000 -2.00000 21.20000
v 1.80000 -2.00000 21.20000
v 5.80000 2.00000 2.96000
v 1.80000 2.00000 2.96000
v 5.80000 -2.00000 2.96000
v 1.80000 -2.00000 2.96000
f 161 162 164
f 161 164 163
f 165 168 166
f 165 167 168
f 161 165 166
f 161 166 162
f 163 164 168
f 163 168 167
f 161 163 167
f 161 167 165
f 162 166 168
f 162 168 164
o toe.L
v 5.40000 0.55053 1.45770
v 2.20000 0.55053 1.45770
v 5.40000 -0.55053 4.46230
v 2.20000 -0.55053 4.46230
v 5.40000 -5.88947 -0.90230
v 2.20000 -5.88947 -0.90230
v 5.40000 -6.99053 2.10230
v 2.20000 -6.99053 2.10230
f 169 170 172
f 169 172 171
f 173 176 174
f 173 175 176
f 169 173 174
f 169 174 170
f 171 172 176
f 171 176 175
f 169 171 175
f 169 175 173
f 170 174 176
f 170 176 172
